<?xml version="1.0" encoding="UTF-8"?>
<svg id="OBJECTS" xmlns="http://www.w3.org/2000/svg" viewBox="0 0 405.4 338.8">
  <defs>
    <style>
      .cls-1 {
        fill: #fff;
      }

      .cls-2 {
        fill: #7f4925;
      }

      .cls-3 {
        stroke-width: 15px;
      }

      .cls-3, .cls-4 {
        fill: none;
        stroke: #efc09a;
        stroke-linecap: round;
        stroke-miterlimit: 10;
      }

      .cls-5 {
        fill: #ff839e;
      }

      .cls-6 {
        fill: #633a19;
      }

      .cls-4 {
        stroke-width: 9px;
      }

      .cls-7 {
        fill: #75aa6d;
      }

      .cls-8 {
        fill: #afef8b;
      }

      .cls-9 {
        fill: #393f44;
      }

      .cls-10 {
        fill: #303549;
      }

      .cls-11 {
        fill: #efc09a;
      }

      .cls-12 {
        fill: #1a706d;
      }

      .cls-13 {
        fill: #89c182;
      }

      .cls-14 {
        fill: #3b415e;
      }

      .cls-15 {
        fill: #ea8768;
      }

      .cls-16 {
        fill: #c4fcf9;
      }

      .cls-17 {
        fill: #dba77f;
      }

      .cls-18 {
        fill: #c68d66;
      }
    </style>
  </defs>
  <g>
    <g>
      <ellipse class="cls-16" cx="202.25" cy="138.55" rx="98.38" ry="150.67" transform="translate(32.86 315.78) rotate(-80.71)"/>
      <path class="cls-1" d="M41.4,150.13H121.4s-14.81-15.11-25.19-8.59c0,0-8.89-17.48-22.22-17.48s-18.67,11.85-18.67,11.85c0,0-12.15,.3-13.93,14.22Z"/>
      <path class="cls-1" d="M228.64,104.5h108.18s-20.03-20.43-34.06-11.62c0,0-12.02-23.64-30.05-23.64s-25.24,16.03-25.24,16.03c0,0-16.43,.4-18.83,19.23Z"/>
    </g>
    <path class="cls-12" d="M29.25,275.91c34.96-71.11,59.85-44.44,59.85-44.44,0,0,21.93-53.33,61.63-65.19,39.7-11.85,69.33,58.67,69.33,58.67,0,0,24.3-32.59,58.07,9.48,0,0,14.81-9.48,28.44,7.7,0,0,35.56-36.15,61.63,32.59l-338.96,1.19Z"/>
    <g>
      <ellipse class="cls-13" cx="200.81" cy="282.62" rx="174.67" ry="31.51"/>
      <path class="cls-7" d="M270.97,277.88s0-.03,.01-.05c.03-.13,.05-.26,.05-.39,0-2.22-4.09-4.3-11.23-6.09h0s0,0,0,0c-1-.25-2.06-.49-3.17-.73,0,0,0,0,0,0-14.89-3.19-39.91-5.28-68.27-5.28-1.13,0-2.26,0-3.38,.01h0c-17.64,.1-33.86,1.02-46.97,2.49h0s0,0,0,0c-17.33,1.95-29.22,4.89-31.78,8.24h0c-.34,.45-.52,.9-.52,1.36,0,5.81,27.96,10.66,65.25,11.83h0c5.62,.18,11.44,.27,17.42,.27,8.21,0,16.13-.18,23.62-.5h0s0,0,0,0c33.22-1.45,57.69-5.87,58.98-11.16Z"/>
      <g>
        <path class="cls-8" d="M109.25,287.55c-27.95-8.62-55.17-12.15-80.22-10.66-.73,.72-1.33,1.45-1.78,2.19,46.53-3.09,96.65,12.07,136.75,34.35,1.6,.06,3.21,.12,4.83,.17-18.37-10.63-38.69-19.61-59.57-26.05Z"/>
        <path class="cls-8" d="M342.66,264.23c11.71,6.31,22.63,13.23,32.41,20.51,.26-.7,.4-1.41,.4-2.13,0-.08-.01-.16-.02-.24-7.4-5.5-15.34-10.73-23.7-15.62-2.81-.87-5.85-1.71-9.1-2.53Z"/>
        <path class="cls-8" d="M250.71,312.82c1.11-.06,2.21-.12,3.3-.18-24.28-18.54-54.85-34.23-86.69-44.05-25.25-7.79-49.92-11.43-72.92-10.96-9.73,1.35-18.65,2.88-26.6,4.56,62.8-10.92,135.78,15.76,182.9,50.63Z"/>
        <path class="cls-8" d="M203.63,251.11c-.94,0-1.88,0-2.82,0-2.4,0-4.78,.01-7.15,.03,11.47,2.17,23.1,4.92,34.76,8.26,38.29,10.96,72.9,27.03,98.09,45.1,.91-.17,1.8-.34,2.69-.51-25.51-18.66-60.96-35.27-100.22-46.51-8.48-2.43-16.94-4.54-25.34-6.36Z"/>
      </g>
    </g>
  </g>
  <g>
    <g>
      <path class="cls-4" d="M218.59,93.91c-3.41-6.44,14.67,81.85,45.48,3.93"/>
      <path class="cls-11" d="M258.9,100.07c-6.79-4.75-4.91-12.36-4.91-12.36,0,0,1.96-.65,4.91,2.78,0,0-1.06-10.23,2.86-12.19,3.93-1.96,10.39,2.54,10.8,12.19,.41,9.66-6.14,12.11-6.14,12.11l-7.53-2.54Z"/>
    </g>
    <g>
      <polyline class="cls-3" points="202.14 155.91 240.96 204.21 227.03 260.36"/>
      <path class="cls-10" d="M195.92,167.17l29.63,38.52s17.19,.3,24.59-14.52l-30.81-39.11s-16.59-2.07-23.41,15.11Z"/>
      <path class="cls-14" d="M209.38,163.84l-14.05-.24c-6.67-.11-12.04-5.66-11.93-12.34h0c.11-6.67,5.66-12.04,12.34-11.93l14.05,.24c6.67,.11,12.04,5.66,11.93,12.34h0c-.11,6.67-5.66,12.04-12.34,11.93Z"/>
      <polyline class="cls-3" points="198.3 155.92 177.25 213.69 131.25 225.02"/>
      <path class="cls-14" d="M219.19,259.18l-3,15.79,13.16,3.14c3.35,.8,6.79,1.16,10.23,1.06l7.87-.22s1.76-7.7-14.12-10.72l1.08-4.92-15.22-4.14Z"/>
      <path class="cls-14" d="M129.39,217.33l-15.95,5.55,4.04,13.63c1.03,3.47,2.51,6.78,4.4,9.86l4.33,7.05s7.93-2.44,2.35-18.47l5.05-1.6-4.22-16.02Z"/>
    </g>
    <path class="cls-15" d="M207.13,77.63l7.93,2.57c4.75,1.54,7.93,6.03,7.79,11.03l-1.55,56.96-30.12-1.19-8.32,3.57s-6.54-31.03,4.9-63.51c2.77-7.87,11.43-12,19.37-9.43Z"/>
    <g>
      <path class="cls-6" d="M231.25,50.13c6.22-6.44,5.78-10.67,2.44-15.56-3.33-4.89-10.22-1.56-10.22-1.56l7.78,17.11Z"/>
      <g>
        <path class="cls-11" d="M206.01,69.68h4.54c2.31,0,4.18,1.87,4.18,4.18v8.95c0,2.31-1.87,4.18-4.18,4.18h-4.54c-2.31,0-4.18-1.87-4.18-4.18v-8.95c0-2.31,1.87-4.18,4.18-4.18Z" transform="translate(4.78 -11.68) rotate(3.25)"/>
        <path class="cls-18" d="M209.44,69.73l-1.34-.08c-3.18-.18-5.92,2.27-6.1,5.45l-.28,5c4.14,3.32,8.25,4.35,11.91,4.26,.53-.81,.88-1.75,.93-2.78l.33-5.74c.18-3.18-2.27-5.92-5.45-6.1Z"/>
        <path class="cls-11" d="M207.53,31.75h11.01c7.37,0,13.35,5.98,13.35,13.35v14.76c0,9.92-8.06,17.98-17.98,17.98h-4.92c-10.1,0-18.3-8.2-18.3-18.3v-10.95c0-9.3,7.55-16.84,16.84-16.84Z" transform="translate(-.32 1.25) rotate(-.34)"/>
        <path class="cls-6" d="M227.47,40.36c12.74-.44,12.3-15.56,5.48-18.96-6.81-3.41-13.48,1.33-13.63,4.44,0,0-24.52,1.19-28.3,6.96-3.78,5.78-4.89,24.67,1.33,34.22,0,0,4.76-.01,6.05-10.12,0,0,13.29,1.01,14.62-15.66l14.44-.89Z"/>
        <g>
          <path class="cls-11" d="M205.82,56.19c.26,2.69-1.71,5.09-4.4,5.35-2.69,.26-5.09-1.71-5.35-4.4-.26-2.69,1.71-5.09,4.4-5.35,2.69-.26,5.09,1.71,5.35,4.4Z"/>
          <path class="cls-17" d="M203.48,56.41c.14,1.4-.89,2.64-2.29,2.78-1.4,.14-2.64-.89-2.78-2.29-.14-1.4,.89-2.64,2.29-2.78,1.4-.14,2.64,.89,2.78,2.29Z"/>
        </g>
        <g>
          <g>
            <path class="cls-9" d="M214.65,53.57c-.09,1.17,.78,2.19,1.95,2.28,1.17,.09,2.19-.78,2.28-1.95,.09-1.17-.78-2.19-1.95-2.28-1.17-.09-2.19,.78-2.28,1.95Z"/>
            <path class="cls-9" d="M225.98,54.2c-.08,1.05,.7,1.96,1.75,2.04,1.05,.08,1.96-.7,2.04-1.75,.08-1.05-.7-1.96-1.75-2.04-1.05-.08-1.96,.7-2.04,1.75Z"/>
            <path class="cls-18" d="M226.04,61.65c.15,.01,.31-.04,.43-.16,.95-.92,1.33-1.84,1.11-2.73-.32-1.34-1.89-2.08-2.61-2.36l-.62-4.35c-.04-.31-.33-.52-.63-.47-.31,.04-.52,.33-.47,.63l.72,5.03,.34,.1c.54,.17,1.98,.79,2.19,1.67,.11,.48-.16,1.04-.8,1.66-.22,.21-.23,.57-.01,.79,.1,.1,.23,.16,.36,.17Z"/>
          </g>
          <g>
            <path class="cls-9" d="M213.17,60.11l12.24,4.52s-2.7,5.64-8.87,3.43c-5.43-1.94-3.37-7.95-3.37-7.95Z"/>
            <path class="cls-5" d="M215.79,63.81c-1.06-.71-2.07-1.09-3-1.26-.03,1.9,.6,4.38,3.75,5.51,.63,.23,1.22,.35,1.78,.43,.05-1.56-.49-3.31-2.53-4.67Z"/>
            <path class="cls-1" d="M213.17,60.11c1.91,6.22,8.53,6.81,12.24,4.52l-12.24-4.52Z"/>
          </g>
        </g>
        <path class="cls-2" d="M237.66,30.73c.05-1.38-.14-2.77-.55-4.05-12.8,2.2-36.63,5.75-36.94,1.72-4.24,1.03-7.87,2.46-9.14,4.4-.36,.54-.69,1.2-.99,1.96,21.25,2.85,38.29-.99,47.62-4.03Z"/>
      </g>
    </g>
    <path class="cls-14" d="M186.14,152.36l-15.7,46.52s8.3,9.19,26.67,4.44l16-46.22s-8.89-17.19-26.96-4.74Z"/>
    <g>
      <path class="cls-4" d="M191.47,88.8c-60.89-1.78-55.56,24.89-38.67,49.78"/>
      <path class="cls-11" d="M148.59,140.82c-2.85,5.99,.69,7.69,.69,7.69,0,0-3,.13-2.24,2.26,.76,2.13,9.04,6.78,14.49,.92,5.45-5.86-3.95-14.48-3.95-14.48l-8.99,3.61Z"/>
    </g>
  </g>
</svg>