<?xml version="1.0" encoding="UTF-8"?>
<svg id="OBJECTS" xmlns="http://www.w3.org/2000/svg" viewBox="0 0 405.4 338.8">
  <defs>
    <style>
      .cls-1 {
        fill: #333747;
      }

      .cls-2 {
        stroke: #9b6154;
      }

      .cls-2, .cls-3 {
        fill: none;
        stroke-linecap: round;
        stroke-linejoin: round;
        stroke-width: 10px;
      }

      .cls-4 {
        fill: #fff;
      }

      .cls-5 {
        fill: #5376f4;
      }

      .cls-6 {
        fill: #e8a862;
      }

      .cls-7 {
        fill: #ff839e;
      }

      .cls-8 {
        fill: #513a3a;
      }

      .cls-9 {
        fill: #b37867;
      }

      .cls-10 {
        fill: #393f44;
      }

      .cls-11 {
        fill: #a0b1ba;
      }

      .cls-3 {
        stroke: #b37867;
      }

      .cls-12 {
        fill: #1a706d;
      }

      .cls-13 {
        fill: #9b6154;
      }

      .cls-14 {
        fill: #89c182;
      }

      .cls-15 {
        fill: #c7e3ef;
      }

      .cls-16 {
        fill: #465072;
      }

      .cls-17 {
        fill: #91645a;
      }

      .cls-18 {
        fill: #c4fcf9;
      }

      .cls-19 {
        fill: #e53e76;
      }

      .cls-20 {
        fill: #efc46f;
      }

      .cls-21 {
        fill: #3a2e2e;
      }

      .cls-22 {
        fill: #4460ad;
      }

      .cls-23 {
        fill: #2f9968;
      }
    </style>
  </defs>
  <ellipse class="cls-18" cx="206.62" cy="134.17" rx="98.38" ry="150.67" transform="translate(40.86 316.42) rotate(-80.71)"/>
  <g>
    <g>
      <path class="cls-12" d="M270.37,251.08c6.81-45.33,32-29.04,32-29.04,0,0,8.59-43.26,32-42.67,23.41,.59,22.22,56.3,22.22,56.3,0,0,25.19-3.26,10.67,34.07l-96.89-18.67Z"/>
      <path class="cls-12" d="M134.08,255.82c-6.81-45.33-32-29.04-32-29.04,0,0-8.59-43.26-32-42.67-23.41,.59-22.22,56.3-22.22,56.3,0,0-25.19-3.26-10.67,34.07l96.89-18.67Z"/>
      <ellipse class="cls-14" cx="206.52" cy="278.23" rx="174.67" ry="31.51"/>
      <path class="cls-20" d="M284.66,250.04c-77.17,3.77-189.85,12.39-251.73,31.68,6.74,11.02,44.96,20.32,98.07,24.92,21.75-17.39,127.57-29.04,249.85-30.36-3.88-11.51-41.98-21.34-96.19-26.24Z"/>
      <path class="cls-6" d="M104.74,278.04s142.81-25.48,229.33-11.26c0,0-24.89,13.93-89.19,13.04-64.3-.89-140.15-1.78-140.15-1.78Z"/>
      <path class="cls-6" d="M140.74,285.97c0,.94-2.16,1.7-4.81,1.7s-4.81-.76-4.81-1.7,2.16-1.7,4.81-1.7,4.81,.76,4.81,1.7Z"/>
      <path class="cls-6" d="M167.11,284.56c0,.49-1.72,.89-3.85,.89s-3.85-.4-3.85-.89,1.72-.89,3.85-.89,3.85,.4,3.85,.89Z"/>
      <path class="cls-6" d="M161.04,288.49c0,1.1-2.75,2-6.15,2s-6.15-.9-6.15-2,2.75-2,6.15-2,6.15,.9,6.15,2Z"/>
      <ellipse class="cls-6" cx="114.52" cy="282.86" rx="3.11" ry="1.7"/>
      <ellipse class="cls-6" cx="99.48" cy="274.19" rx="4.07" ry=".89"/>
      <ellipse class="cls-6" cx="96.08" cy="280.49" rx="4.52" ry="1.41"/>
      <ellipse class="cls-6" cx="204.37" cy="259.15" rx="8.37" ry="1.41"/>
      <ellipse class="cls-6" cx="196.45" cy="265.52" rx="4.59" ry="1.11"/>
      <ellipse class="cls-6" cx="326.45" cy="270.93" rx="9.41" ry="2.67"/>
      <path class="cls-6" d="M336.45,262.56c0,.37-1.69,.67-3.78,.67s-3.78-.3-3.78-.67,1.69-.67,3.78-.67,3.78,.3,3.78,.67Z"/>
      <path class="cls-6" d="M357.93,269.15c0,.74-2.09,1.33-4.67,1.33s-4.67-.6-4.67-1.33,2.09-1.33,4.67-1.33,4.67,.6,4.67,1.33Z"/>
      <ellipse class="cls-6" cx="349.48" cy="266.63" rx="3.26" ry=".89"/>
      <ellipse class="cls-6" cx="342.37" cy="269.6" rx="2.67" ry="1.19"/>
      <path class="cls-6" d="M344.89,264.86c0,.49-1.23,.89-2.74,.89s-2.74-.4-2.74-.89,1.23-.89,2.74-.89,2.74,.4,2.74,.89Z"/>
    </g>
    <g>
      <path class="cls-21" d="M216.56,33.43c33.37,37.2,65.66,24.46,72.12,55.37,4.31,20.6-23.16,37.25-52.26,16.99-29.1-20.26-36.99-42.75-36.99-42.75l17.13-29.62Z"/>
      <path class="cls-13" d="M216.44,144.05l-40.58,3.81,6.89-12.82,24.92,54.23c2.57,5.95-5.65,10.34-9.16,4.89,0,0-31.18-50.89-31.18-50.89-2.43-3.96-1.18-9.14,2.78-11.57,1.29-.8,2.68-1.17,4.12-1.25,0,0,40.58-3.81,40.58-3.81,11.58-.63,13.14,15.86,1.64,17.41h0Z"/>
      <path class="cls-1" d="M207.37,186.71l2.6,15.76-11.86,1.05c-3.02,.27-6.06,.14-9.04-.39l-4.61-.81c-1.41-.25-2.15-1.85-1.38-3.06,1.29-2.02,4.57-4.51,12.83-4.85l-.53-6.18,12-1.52Z"/>
      <path class="cls-2" d="M198.19,80.88c-23.42,40.58-27.03,46.02-57.26,40.03"/>
      <g>
        <g>
          <polygon class="cls-15" points="325.71 226.46 284.04 226.46 324.87 218.14 324.67 217.18 284.56 225.35 322.64 210.32 322.28 209.41 283.52 224.7 318.44 201.98 317.9 201.15 282.82 223.97 312.42 194.38 311.72 193.68 282.25 223.15 305.24 188.39 304.42 187.85 281.84 221.98 298.14 184.44 297.23 184.04 280.64 222.27 289.27 181.5 288.3 181.3 279.63 222.24 279.63 180.39 278.64 180.39 278.64 222.06 270.33 181.23 269.36 181.42 277.53 221.53 262.51 183.46 261.59 183.82 276.88 222.58 254.16 187.65 253.33 188.19 276.15 223.27 246.56 193.68 245.86 194.38 275.33 223.84 240.57 200.85 240.03 201.67 274.16 224.26 236.62 207.96 236.23 208.86 274.45 225.46 233.68 216.83 233.48 217.79 274.42 226.46 232.57 226.46 232.57 227.45 274.24 227.45 233.41 235.77 233.61 236.73 273.72 228.56 235.64 243.59 236 244.51 274.76 229.21 239.83 251.94 240.37 252.76 275.45 229.94 245.86 259.54 246.56 260.23 276.02 230.77 253.03 265.52 253.86 266.07 276.44 231.93 260.14 269.48 261.05 269.87 277.64 231.65 269.01 272.41 269.98 272.62 278.64 231.67 278.64 273.52 279.63 273.52 279.63 231.85 287.95 272.69 288.92 272.49 280.75 232.38 295.77 270.46 296.69 270.09 281.4 231.33 304.12 266.26 304.95 265.72 282.12 230.64 311.72 260.23 312.42 259.54 282.95 230.07 317.7 253.06 318.25 252.24 284.11 229.65 321.66 245.95 322.05 245.05 283.83 228.45 324.59 237.08 324.8 236.12 283.86 227.45 325.71 227.45 325.71 226.46"/>
          <polygon class="cls-15" points="177.6 218.14 177.4 217.18 137.29 225.35 175.37 210.32 175.01 209.41 136.25 224.7 171.18 201.98 170.64 201.15 135.56 223.97 165.15 194.38 164.45 193.68 134.99 223.14 157.98 188.39 157.15 187.85 134.57 221.98 150.87 184.44 149.96 184.04 133.37 222.27 142 181.5 141.03 181.3 132.37 222.24 132.37 180.39 131.38 180.39 131.38 222.06 123.06 181.23 122.09 181.42 130.26 221.53 115.24 183.46 114.32 183.82 129.61 222.58 106.89 187.65 106.06 188.19 128.89 223.27 99.29 193.68 98.59 194.38 128.06 223.84 93.31 200.85 92.76 201.67 126.9 224.26 89.35 207.96 88.96 208.86 127.18 225.46 86.42 216.83 86.21 217.79 127.15 226.46 85.3 226.46 85.3 227.45 126.97 227.45 86.14 235.77 86.34 236.73 126.45 228.56 88.37 243.59 88.74 244.51 127.5 229.21 92.57 251.94 93.11 252.76 128.19 229.94 98.59 259.54 99.29 260.23 128.76 230.77 105.77 265.52 106.59 266.07 129.17 231.93 112.87 269.48 113.78 269.87 130.37 231.65 121.74 272.41 122.71 272.62 131.38 231.67 131.38 273.52 132.37 273.52 132.37 231.85 140.68 272.69 141.65 272.49 133.48 232.38 148.5 270.46 149.42 270.09 134.13 231.33 156.85 266.26 157.68 265.72 134.86 230.64 164.45 260.23 165.15 259.54 135.68 230.07 170.44 253.06 170.98 252.24 136.85 229.65 174.39 245.95 174.78 245.05 136.56 228.45 177.33 237.08 177.53 236.12 136.59 227.45 178.44 227.45 178.44 226.46 136.77 226.46 177.6 218.14"/>
        </g>
        <path class="cls-1" d="M280.69,278.06c-28.25,0-51.24-22.99-51.24-51.24s22.99-51.24,51.24-51.24,51.24,22.99,51.24,51.24-22.99,51.24-51.24,51.24Zm0-94.2c-23.69,0-42.97,19.27-42.97,42.97s19.28,42.97,42.97,42.97,42.97-19.27,42.97-42.97-19.27-42.97-42.97-42.97Z"/>
        <circle class="cls-11" cx="131.87" cy="226.82" r="8.91"/>
        <path class="cls-1" d="M131.87,278.06c-28.25,0-51.24-22.99-51.24-51.24s22.99-51.24,51.24-51.24,51.24,22.99,51.24,51.24-22.99,51.24-51.24,51.24Zm0-94.2c-23.69,0-42.97,19.27-42.97,42.97s19.28,42.97,42.97,42.97,42.97-19.27,42.97-42.97-19.27-42.97-42.97-42.97Z"/>
        <path class="cls-19" d="M284.07,225.37l-31.47-64.26,9.17-13.77c1.12-1.69,.67-3.97-1.02-5.1-1.69-1.13-3.97-.67-5.1,1.02l-8.98,13.5-89.4-10.83,3.43-23.18c.3-2.01-1.09-3.88-3.1-4.17-2.01-.3-3.88,1.09-4.18,3.1l-3.91,26.45-21.18,77.74c-.53,1.96,.63,3.98,2.58,4.51,.32,.09,.65,.13,.96,.13,1.62,0,3.1-1.08,3.55-2.71l19.19-70.4,54.17,71.56c.11,.15,.23,.29,.35,.42,.03,.03,.07,.07,.1,.1,.16,.15,.32,.29,.5,.41,0,0,0,0,0,0,.02,.01,.04,.02,.07,.04,.12,.07,.24,.14,.36,.2,.05,.03,.11,.05,.17,.07,.1,.04,.19,.08,.29,.11,.06,.02,.13,.04,.19,.06,.1,.03,.2,.05,.3,.07,.06,.01,.12,.03,.18,.03,.14,.02,.28,.03,.42,.03,.02,0,.04,0,.06,0,0,0,0,0,0,0h68.9c1.24,0,2.39-.62,3.07-1.65,.68-1.03,.8-2.34,.31-3.47Zm-41.82-61.98l-30.54,56.93-50.34-66.12,80.88,9.19Zm-23.59,59.75l29.09-54.74,27.37,54.74h-56.45Z"/>
        <g>
          <circle class="cls-11" cx="212.1" cy="227.13" r="13.37" transform="translate(-78.91 336.16) rotate(-67.5)"/>
          <rect class="cls-11" x="242.81" y="185.1" width="1.84" height="63.3" transform="translate(18.18 452.36) rotate(-87.9)"/>
          <rect class="cls-11" x="245.85" y="206.94" width="1.84" height="69.55" transform="translate(-13.59 468.74) rotate(-85.49)"/>
          <path class="cls-11" d="M268.14,227.13c0,6.07,4.92,11,11,11s11-4.92,11-11-4.92-11-11-11-11,4.92-11,11Z"/>
          <path class="cls-16" d="M274.42,227.13c0,2.61,2.11,4.72,4.72,4.72s4.72-2.11,4.72-4.72-2.11-4.72-4.72-4.72-4.72,2.11-4.72,4.72Z"/>
          <rect class="cls-11" x="211.79" y="204.36" width="1.84" height="45.43" transform="translate(-29.57 31.86) rotate(-8.01)"/>
          <path class="cls-16" d="M205.96,206.08h7.17c1.1,0,2-.9,2-2h0c0-1.1-.9-2-2-2h-7.17c-1.1,0-2,.9-2,2h0c0,1.1,.9,2,2,2Z"/>
          <path class="cls-16" d="M212.29,251.57h7.17c1.1,0,2-.9,2-2h0c0-1.1-.9-2-2-2h-7.17c-1.1,0-2,.9-2,2h0c0,1.1,.9,2,2,2Z"/>
          <circle class="cls-16" cx="212.1" cy="227.13" r="7.55" transform="translate(-46.51 54.81) rotate(-13.28)"/>
          <path class="cls-16" d="M281.63,228.27l1.55,6.02c-.42,1.5-4.08,2.5,.04,7.5,0,0,1.29,2.42-.79,3.67-2.08,1.25-3.3-1.25-3.3-1.25l-4.72-17.07,7.22,1.14Z"/>
        </g>
        <path class="cls-1" d="M267.92,138.54c-3.84,1.13-7.67,1.77-11.51,2.29-1.92,.24-3.84,.44-5.75,.56-1.92,.12-3.84,.18-5.75,.08-1.34-.07-2.48,.95-2.56,2.29-.07,1.34,.95,2.48,2.29,2.56,.09,0,.18,0,.27,0,1.92-.11,3.84-.04,5.75,.08,1.92,.11,3.84,.32,5.75,.56,3.84,.52,7.67,1.16,11.51,2.29,2.95,.87,6.05-.82,6.92-3.77s-.82-6.05-3.77-6.92c-1.07-.32-2.16-.3-3.15,0Z"/>
        <path class="cls-1" d="M138.99,150.22c-2.64,0-6.9-.53-10.3-3.45-3.08-2.64-4.63-6.5-4.63-11.46,0-13.13,10.41-17.15,15.92-17.45,.07,0,.13,0,.2,0h18.55c2.03,0,3.68,1.65,3.68,3.68s-1.65,3.68-3.68,3.68h-18.43c-1.63,.13-8.89,1.21-8.89,10.1,0,2.7,.69,4.68,2.05,5.86,2.09,1.82,5.65,1.78,6.85,1.61,2.01-.28,3.87,1.11,4.16,3.11,.29,2-1.07,3.86-3.07,4.16-.25,.04-1.14,.16-2.41,.16Z"/>
      </g>
      <g>
        <path class="cls-9" d="M252.63,140.31l-38.22,41.56,2.21-7.4,6.58,58.55c.34,3.01-1.83,5.72-4.83,6.05-2.8,.31-5.35-1.54-5.95-4.23l-13.03-57.46c-.63-2.79,.31-5.53,2.21-7.4l38.58-41.23c3.21-3.43,8.59-3.61,12.01-.4,3.41,3.19,3.6,8.53,.45,11.96h0Z"/>
        <path class="cls-1" d="M224.07,231.51l1.94,15.86-11.9,.56c-3.03,.14-6.06-.12-9.02-.76l-4.58-1c-1.4-.31-2.07-1.94-1.25-3.11,1.38-1.97,4.75-4.31,13.02-4.31l-.28-6.2,12.05-1.02Z"/>
      </g>
      <path class="cls-5" d="M242.56,146.26l14.89-3.86c7.07-1.84,11.35-9.12,9.52-16.19h0c-1.84-7.07-9.12-11.35-16.19-9.52l-14.89,3.86c-7.07,1.84-11.35,9.12-9.52,16.19h0c1.84,7.07,9.12,11.35,16.19,9.52Z"/>
      <path class="cls-5" d="M264.91,132.62c-12.23,25.74-25.4,38.65-34.14,44.9-4.14,2.97-9.72,2.93-13.85-.06-3.16-2.29-8.67-5.38-18.19-9.44-26.14-11.17,2.45-45.75,2.45-45.75l48.2-1.09,15.52,11.44Z"/>
      <path class="cls-22" d="M236.74,126.04l3.58-4.65-39.13,.88s-.23,.28-.63,.8c28.22,13.72,36.18,2.97,36.18,2.97Z"/>
      <path class="cls-5" d="M181.13,82.58l-.05-.89c-.66-9.04,19.72-18.53,29.74-16.09,10.96,2.66,50.42,52.76,50.42,52.76,0,0-22.39,10.85-34.27,11.77,0,0-11.98-11.67-23.68-23.81-4.24,.2-9.7-.34-13.42-3.68-6.87-6.18-8.73-20.06-8.73-20.06Z"/>
      <g>
        <path class="cls-9" d="M135.03,116.64s-11.24,.46-13.46,3.87c-1.57,2.41-5.48,11.44,.28,12.27,2.53,.36,3.05-1.42,3.23-3.61,.23-2.85,2.78-4.25,4.27-4.69,2.25-.67,3.93,1.44,3.96,1.86,.02,.33,5.13,0,5.13,0l-3.41-9.71Z"/>
        <path class="cls-3" d="M136.58,120.98c59.09,19.88,64.61-10.48,73.6-38.26"/>
      </g>
      <path class="cls-9" d="M205.19,67.3s-13.89,3-20.67,9.56c0,0,2.78,9.11,11.56,11.78,0,0,9.44-10.11,9.11-21.33Z"/>
      <g>
        <path class="cls-9" d="M192.06,60.84h4.54c2.31,0,4.18,1.87,4.18,4.18v8.95c0,2.31-1.87,4.18-4.18,4.18h-4.54c-2.31,0-4.18-1.87-4.18-4.18v-8.95c0-2.31,1.87-4.18,4.18-4.18Z" transform="translate(396.14 112.75) rotate(172.42)"/>
        <path class="cls-17" d="M192.52,61.01l1.33-.18c3.15-.42,6.08,1.82,6.49,4.97l.66,4.96c-3.06,2.85-6.2,4.29-9.19,4.86-1.63,.31-3.28-.75-3.5-2.39,0-.01,0-.02,0-.03l-.76-5.7c-.42-3.15,1.82-6.08,4.97-6.49Z"/>
        <path class="cls-9" d="M187.26,23.2h4.92c9.92,0,17.98,8.06,17.98,17.98v14.76c0,7.37-5.98,13.35-13.35,13.35h-11.01c-9.3,0-16.84-7.55-16.84-16.84v-10.95c0-10.1,8.2-18.3,18.3-18.3Z" transform="translate(381.87 79.19) rotate(176.01)"/>
        <path class="cls-21" d="M168.23,37.71c9.51,5.71,22.43,2.85,22.43,2.85,0,0-8.74-2.52-10.52-4.3,0,0,9.78,3.26,15.26,1.93,0,0-1.93,7.85,6.96,12l8.3,5.48s7.11-9.93,7.7-18.67c.59-8.74-16.89-23.41-37.78-18.52-5.98,1.4-10.02,3.14-12.74,4.91-5.22,3.4-4.96,11.1,.38,14.31Z"/>
        <g>
          <path class="cls-9" d="M195.11,47.23c-.06,2.7,2.09,4.94,4.79,5,2.7,.06,4.94-2.09,5-4.79,.06-2.7-2.09-4.94-4.79-5-2.7-.06-4.94,2.09-5,4.79Z"/>
          <path class="cls-17" d="M197.46,47.28c-.03,1.4,1.09,2.57,2.49,2.6,1.4,.03,2.57-1.09,2.6-2.49,.03-1.4-1.09-2.57-2.49-2.6-1.4-.03-2.57,1.08-2.6,2.49Z"/>
        </g>
        <g>
          <g>
            <path class="cls-10" d="M186.11,45.28c.18,1.16-.61,2.25-1.77,2.43-1.16,.18-2.25-.61-2.43-1.77-.18-1.16,.61-2.25,1.77-2.43,1.16-.18,2.25,.61,2.43,1.77Z"/>
            <path class="cls-10" d="M174.86,46.77c.16,1.04-.55,2.01-1.59,2.17-1.04,.16-2.01-.55-2.17-1.59-.16-1.04,.55-2.01,1.59-2.17,1.04-.16,2.01,.55,2.17,1.59Z"/>
            <path class="cls-17" d="M175.37,54.2c-.15,.02-.32-.02-.44-.12-1.02-.85-1.46-1.74-1.31-2.64,.22-1.36,1.73-2.22,2.43-2.55l.29-4.38c.02-.31,.29-.54,.59-.52,.31,.02,.54,.29,.52,.59l-.34,5.07-.33,.13c-.52,.21-1.92,.94-2.06,1.83-.08,.48,.23,1.02,.93,1.6,.24,.2,.27,.55,.07,.79-.09,.11-.21,.17-.34,.19Z"/>
          </g>
          <g>
            <path class="cls-10" d="M188.08,51.69l-11.87,5.43s3.11,5.42,9.11,2.75c5.27-2.35,2.76-8.19,2.76-8.19Z"/>
            <path class="cls-7" d="M185.75,55.59c1.01-.79,1.98-1.25,2.9-1.48,.17,1.89-.27,4.41-3.32,5.77-.62,.27-1.19,.44-1.75,.56-.17-1.55,.24-3.34,2.17-4.85Z"/>
            <path class="cls-4" d="M188.08,51.69c-1.44,6.34-7.99,7.44-11.87,5.43l11.87-5.43Z"/>
          </g>
        </g>
        <path class="cls-8" d="M207.95,22.89c-11.71,2.09-32.68,4.9-38.44-.46-.59,.32-1.15,.64-1.65,.97-2.73,1.78-3.95,4.74-3.74,7.62,2.22,.54,4.78,.96,7.73,1.25,22.22,2.13,35.54-2.06,41.73-4.92-1.56-1.58-3.46-3.1-5.64-4.46Z"/>
      </g>
    </g>
    <path class="cls-23" d="M208.25,298.95l94.86-6.94s-9.76-15.63-22.39-9.65c0,0-23.82-41.34-45.85-1.4,0,0-18.54-5.77-26.61,17.99Z"/>
  </g>
</svg>