<?xml version="1.0" encoding="UTF-8"?>
<svg id="OBJECTS" xmlns="http://www.w3.org/2000/svg" viewBox="0 0 405.4 338.8">
  <defs>
    <style>
      .cls-1 {
        fill: #e89d1a;
      }

      .cls-2 {
        fill: #fff;
      }

      .cls-3 {
        stroke-miterlimit: 10;
      }

      .cls-3, .cls-4 {
        stroke-width: 12px;
      }

      .cls-3, .cls-4, .cls-5 {
        fill: none;
        stroke: #b37867;
        stroke-linecap: round;
      }

      .cls-4, .cls-5 {
        stroke-linejoin: round;
      }

      .cls-6 {
        fill: #ff839e;
      }

      .cls-7 {
        fill: #b37867;
      }

      .cls-8 {
        fill: #393f44;
      }

      .cls-5 {
        stroke-width: 10px;
      }

      .cls-9 {
        fill: #1a706d;
      }

      .cls-10 {
        fill: #123d3c;
      }

      .cls-11 {
        fill: #89c182;
      }

      .cls-12 {
        fill: #3b415e;
      }

      .cls-13 {
        fill: #91645a;
      }

      .cls-14 {
        fill: #c4fcf9;
      }

      .cls-15 {
        fill: #3a2e2e;
      }

      .cls-16 {
        fill: #2f9968;
      }

      .cls-17 {
        fill: #ffb81a;
      }
    </style>
  </defs>
  <g>
    <ellipse class="cls-14" cx="204.14" cy="141.35" rx="98.38" ry="150.67" transform="translate(31.69 319.99) rotate(-80.71)"/>
    <g>
      <path class="cls-16" d="M81.64,108.76c-.22-1.54-.35-3.12-.35-4.72,0-5.73,1.48-11.11,4.08-15.78,4.14-7.45,6.55-15.77,6.37-24.29-.01-.62,0-1.25,.04-1.89,.7-11.08,9.77-20.08,20.86-20.67,12.77-.68,23.33,9.47,23.33,22.08,0,4.96-1.66,9.53-4.42,13.22,8.94,5.8,14.86,15.87,14.86,27.33,0,.02,0,.03,0,.05,0,3.03,.96,5.97,2.79,8.39,5.81,7.72,9.17,17.39,8.87,27.86-.65,23.11-19.41,42.05-42.51,42.92-25.21,.95-45.94-19.2-45.94-44.2,0-11.73,4.57-22.38,12.02-30.29Z"/>
      <path class="cls-10" d="M91.54,124.51c-.45-.45-.45-1.18,0-1.63,.45-.45,1.18-.45,1.63,0l18.3,18.3v-25.61l-6.11-6.11c-.45-.45-.45-1.18,0-1.63s1.18-.45,1.63,0l4.48,4.48v-26.93c-.1-.05-.19-.1-.28-.18l-6.3-6.3c-.45-.45-.45-1.18,0-1.63s1.18-.45,1.63,0l4.94,4.94v-25.78c0-.64,.52-1.15,1.15-1.15s1.15,.52,1.15,1.15v54.96l17.69-17.69c.45-.45,1.18-.45,1.63,0,.45,.45,.45,1.18,0,1.63l-19.32,19.32v27.45l10.47-10.47c.45-.45,1.18-.45,1.63,0,.45,.45,.45,1.18,0,1.63l-12.1,12.1v25l16.46-16.46c.45-.45,1.18-.45,1.63,0,.45,.45,.45,1.18,0,1.63l-18.09,18.09v70.47c0,.64-.52,1.15-1.15,1.15s-1.15-.52-1.15-1.15v-70.25c-.18-.34-.18-.74,0-1.08v-28.32l-19.94-19.94Z"/>
    </g>
    <g>
      <path class="cls-16" d="M322.42,108.76c.22-1.54,.35-3.12,.35-4.72,0-5.73-1.48-11.11-4.08-15.78-4.14-7.45-6.55-15.77-6.37-24.29,.01-.62,0-1.25-.04-1.89-.7-11.08-9.77-20.08-20.86-20.67-12.77-.68-23.33,9.47-23.33,22.08,0,4.96,1.66,9.53,4.42,13.22-8.94,5.8-14.86,15.87-14.86,27.33,0,.02,0,.03,0,.05,0,3.03-.96,5.97-2.79,8.39-5.81,7.72-9.17,17.39-8.87,27.86,.65,23.11,19.41,42.05,42.51,42.92,25.21,.95,45.94-19.2,45.94-44.2,0-11.73-4.57-22.38-12.02-30.29Z"/>
      <path class="cls-10" d="M312.52,124.51c.45-.45,.45-1.18,0-1.63-.45-.45-1.18-.45-1.63,0l-18.3,18.3v-25.61l6.11-6.11c.45-.45,.45-1.18,0-1.63-.45-.45-1.18-.45-1.63,0l-4.48,4.48v-26.93c.1-.05,.19-.1,.28-.18l6.3-6.3c.45-.45,.45-1.18,0-1.63-.45-.45-1.18-.45-1.63,0l-4.94,4.94v-25.78c0-.64-.52-1.15-1.15-1.15s-1.15,.52-1.15,1.15v54.96l-17.69-17.69c-.45-.45-1.18-.45-1.63,0-.45,.45-.45,1.18,0,1.63l19.32,19.32v27.45l-10.47-10.47c-.45-.45-1.18-.45-1.63,0s-.45,1.18,0,1.63l12.1,12.1v25l-16.46-16.46c-.45-.45-1.18-.45-1.63,0-.45,.45-.45,1.18,0,1.63l18.09,18.09v70.47c0,.64,.52,1.15,1.15,1.15s1.15-.52,1.15-1.15v-70.25c.18-.34,.18-.74,0-1.08v-28.32l19.94-19.94Z"/>
    </g>
    <g>
      <path class="cls-9" d="M346.4,241.52s10.36-47.17-10.96-53.04c-23.7-6.52-38.52,42.07-38.52,42.07,0,0-26.07-14.22-24.89,18.07l90.67,19.26c5.33-45.04-16.3-26.37-16.3-26.37Z"/>
      <path class="cls-9" d="M121.73,230.56s-14.81-48.59-38.52-42.07c-21.32,5.86-10.96,53.04-10.96,53.04,0,0-21.63-18.67-16.3,26.37l90.67-19.26c1.19-32.3-24.89-18.07-24.89-18.07Z"/>
    </g>
    <ellipse class="cls-11" cx="202.7" cy="276.08" rx="174.67" ry="31.51"/>
    <g>
      <polygon class="cls-17" points="101.22 260.93 303.59 260.93 327.29 289.96 81.07 289.96 101.22 260.93"/>
      <ellipse class="cls-1" cx="203.74" cy="278.56" rx="44.89" ry="8.59"/>
    </g>
  </g>
  <g>
    <g>
      <line class="cls-3" x1="215.59" y1="157.08" x2="210.26" y2="268.78"/>
      <path class="cls-12" d="M211.53,161.82h-15.79c-7.5,0-13.63-6.14-13.63-13.63h0c0-7.5,6.14-13.63,13.63-13.63h15.79c7.5,0,13.63,6.14,13.63,13.63h0c0,7.5-6.14,13.63-13.63,13.63Z"/>
      <path class="cls-12" d="M207.15,157.15l-.44,37.78s9.78,2.89,17.11,0l.67-43.78-17.33,6Z"/>
      <polyline class="cls-4" points="188.03 151.45 156.33 184.33 200.18 183.45"/>
      <path class="cls-7" d="M199.28,179.67c-2.26,5.6,5.03,24,5.03,24,0,0-1.08,3.85,1.08,3.85s2.69-6.96,3.41-15.7c.72-8.74,3.23-22.52-9.52-12.15Z"/>
      <path class="cls-12" d="M184.63,143.3l-23.41,23.56s5.04,8.89,17.04,6.52l19.7-19.41s1.48-9.93-13.33-10.67Z"/>
      <path class="cls-7" d="M205.07,263.08c-1.19,4.07-1.63,9.26-1.33,10.07s2,11.33,3.19,12.15c1.19,.81,13.48,2,15.11-1.33,1.63-3.33-5.19-9.04-6.3-16.67-1.11-7.63-10.67-4.22-10.67-4.22Z"/>
    </g>
    <g>
      <circle class="cls-7" cx="221.91" cy="91.59" r="8.89" transform="translate(-16.27 61.52) rotate(-15.23)"/>
      <circle class="cls-7" cx="184.48" cy="91.59" r="8.89" transform="translate(64.52 259.02) rotate(-80.78)"/>
      <path class="cls-17" d="M224.18,143.45c-3.28,1.43-10.8,4.19-20.44,2.96-11.27-1.43-18.59-7.43-21.19-9.78v-42.15c0-8.47,6.86-15.33,15.33-15.33h10.52c8.47,0,15.33,6.86,15.33,15.33l.44,48.96Z"/>
      <ellipse class="cls-7" cx="203.42" cy="85.82" rx="13.5" ry="7.22"/>
      <path class="cls-5" d="M177.37,93.67c-55.22,32.59-18.67,39.59,20.44,21.81"/>
      <path class="cls-7" d="M203.15,117.56v-23.41s-1.78,.74-2.52,4c-.74,3.26-5.04,12.52-5.04,15.11s3.78,7.04,7.56,4.3Z"/>
      <path class="cls-5" d="M229.02,93.67c55.22,32.59,18.67,39.59-20.44,21.81"/>
      <path class="cls-7" d="M203.24,117.56v-23.41s1.78,.74,2.52,4c.74,3.26,5.04,12.52,5.04,15.11s-3.78,7.04-7.56,4.3Z"/>
    </g>
    <g>
      <path class="cls-7" d="M203.8,85.14h0c-3.75,.2-6.99-2.71-7.19-6.46l-.39-7.31c-.12-2.3,1.66-4.28,3.95-4.4l5.3-.28c2.3-.12,4.28,1.66,4.4,3.95l.39,7.31c.2,3.75-2.71,6.99-6.46,7.19Z"/>
      <path class="cls-13" d="M203.53,66.79l-1.42,.08c-3.36,.18-5.97,3.08-5.79,6.44l.28,5.3c4.74,3.01,9.19,3.62,13.03,3.1,.46-.92,.72-1.95,.66-3.04l-.33-6.08c-.18-3.36-3.08-5.97-6.44-5.79Z"/>
      <path class="cls-7" d="M197.71,28.43h10.52c9.14,0,16.56,7.42,16.56,16.56v11.94c0,11.22-9.11,20.32-20.32,20.32h-2.99c-11.22,0-20.32-9.11-20.32-20.32v-11.94c0-9.14,7.42-16.56,16.56-16.56Z" transform="translate(-.59 2.33) rotate(-.66)"/>
      <path class="cls-15" d="M232.26,41.63c0-1.65-.72-3.13-1.86-4.14,.27-.91,.42-1.86,.42-2.86,0-3.47-1.77-6.52-4.45-8.32,.07-.55,.11-1.11,.11-1.68,0-7.61-6.17-13.78-13.78-13.78-6.41,0-11.78,4.38-13.32,10.31-2.12,.53-3.98,1.73-5.32,3.37-1.28-.65-2.72-1.02-4.25-1.02-5.22,0-9.44,4.23-9.44,9.44,0,1.19,.23,2.33,.63,3.38-2.24,.72-3.86,2.81-3.86,5.29,0,.99,.26,1.93,.72,2.73-.85,.83-1.39,1.98-1.39,3.27,0,2.52,2.04,4.56,4.56,4.56s4.56-2.04,4.56-4.56c0-.4-.07-.79-.17-1.16,1.52-.85,2.59-2.4,2.8-4.21,.52,.09,1.05,.14,1.59,.14,2.71,0,5.15-1.15,6.87-2.98,1.5,.9,3.25,1.43,5.13,1.43,2.29,0,4.4-.78,6.08-2.08,.42,1.14,1.51,1.97,2.81,1.97,.67,0,1.28-.22,1.77-.59,1.11,1.68,2.72,3,4.61,3.76-.03,.16-.05,.33-.05,.5,0,1.63,1.3,2.94,2.91,2.99,0,.08-.02,.15-.02,.23,0,2.52,2.04,4.56,4.56,4.56s4.56-2.04,4.56-4.56c0-.31-.03-.62-.09-.92,1.95-.86,3.31-2.81,3.31-5.08Z"/>
      <g>
        <path class="cls-7" d="M184.41,54.71c0,2.86-2.32,5.19-5.19,5.19s-5.19-2.32-5.19-5.19,2.32-5.19,5.19-5.19,5.19,2.32,5.19,5.19Z"/>
        <path class="cls-13" d="M181.91,54.71c0,1.49-1.21,2.69-2.69,2.69s-2.69-1.21-2.69-2.69,1.21-2.69,2.69-2.69,2.69,1.21,2.69,2.69Z"/>
      </g>
      <g>
        <path class="cls-7" d="M230.82,54.71c0,2.86-2.32,5.19-5.19,5.19s-5.19-2.32-5.19-5.19,2.32-5.19,5.19-5.19,5.19,2.32,5.19,5.19Z"/>
        <path class="cls-13" d="M228.32,54.71c0,1.49-1.21,2.69-2.69,2.69s-2.69-1.21-2.69-2.69,1.21-2.69,2.69-2.69,2.69,1.21,2.69,2.69Z"/>
      </g>
      <g>
        <g>
          <path class="cls-8" d="M194.57,50.38c-.11,1.24,.8,2.33,2.03,2.45,1.24,.11,2.33-.8,2.45-2.03,.11-1.24-.8-2.33-2.03-2.45-1.24-.11-2.33,.8-2.45,2.03Z"/>
          <path class="cls-8" d="M209.12,50.38c-.11,1.24,.8,2.33,2.03,2.45,1.24,.11,2.33-.8,2.45-2.03,.11-1.24-.8-2.33-2.03-2.45-1.24-.11-2.33,.8-2.45,2.03Z"/>
          <path class="cls-13" d="M206.51,59.11c.16,.01,.33-.04,.46-.16,1.02-.96,1.43-1.93,1.22-2.88-.32-1.42-1.97-2.23-2.73-2.53l-.59-4.61c-.04-.32-.34-.55-.66-.51-.32,.04-.55,.34-.51,.66l.69,5.34,.36,.12c.57,.18,2.09,.86,2.3,1.8,.11,.51-.18,1.1-.88,1.75-.24,.22-.25,.6-.03,.84,.1,.11,.24,.17,.38,.18Z"/>
        </g>
        <g>
          <path class="cls-8" d="M195.96,60.48l13.64,2.25s-1.67,6.4-8.54,5.35c-6.04-.93-5.1-7.6-5.1-7.6Z"/>
          <path class="cls-6" d="M199.42,63.82c-1.25-.53-2.37-.72-3.37-.71,.35,1.98,1.5,4.44,5,4.98,.7,.11,1.34,.12,1.94,.09-.26-1.63-1.17-3.34-3.57-4.36Z"/>
          <path class="cls-2" d="M195.96,60.48c3.24,6.08,10.23,5.38,13.64,2.25l-13.64-2.25Z"/>
        </g>
      </g>
    </g>
  </g>
</svg>